<svg width="23" height="23" viewBox="0 0 23 23" fill="none" xmlns="http://www.w3.org/2000/svg">
<g id="icn bx-star">
<path id="Vector" d="M6.96366 13.1376L5.59699 19.0556C5.55467 19.2348 5.56737 19.4226 5.63344 19.5945C5.69951 19.7664 5.81588 19.9143 5.96734 20.019C6.1188 20.1237 6.29831 20.1803 6.48244 20.1814C6.66657 20.1825 6.84674 20.1281 6.99944 20.0252L11.9938 16.6956L16.9881 20.0252C17.1444 20.1289 17.3286 20.1823 17.5161 20.1782C17.7036 20.1741 17.8853 20.1126 18.0369 20.0022C18.1884 19.8917 18.3025 19.7374 18.3638 19.5602C18.425 19.3829 18.4305 19.1912 18.3796 19.0107L16.7019 13.1404L20.8625 9.39625C20.9958 9.27626 21.0909 9.11985 21.1362 8.94635C21.1815 8.77286 21.175 8.58989 21.1174 8.42007C21.0598 8.25026 20.9537 8.10104 20.8123 7.99088C20.6708 7.88072 20.5001 7.81445 20.3213 7.80026L15.0922 7.38383L12.8294 2.37482C12.7572 2.21353 12.6399 2.07657 12.4917 1.98046C12.3434 1.88436 12.1705 1.83322 11.9938 1.83322C11.8171 1.83322 11.6442 1.88436 11.4959 1.98046C11.3476 2.07657 11.2303 2.21353 11.1582 2.37482L8.89536 7.38383L3.66621 7.79934C3.49052 7.81326 3.32256 7.8775 3.18242 7.98438C3.04228 8.09125 2.9359 8.23624 2.876 8.40199C2.81611 8.56774 2.80523 8.74724 2.84468 8.91901C2.88413 9.09078 2.97223 9.24755 3.09844 9.37056L6.96366 13.1376ZM9.58053 9.16969C9.74426 9.15679 9.90149 9.10009 10.0358 9.00552C10.17 8.91095 10.2764 8.782 10.3437 8.63219L11.9938 4.98068L13.6439 8.63219C13.7112 8.782 13.8175 8.91095 13.9518 9.00552C14.0861 9.10009 14.2433 9.15679 14.407 9.16969L18.0503 9.45862L15.05 12.159C14.7895 12.3938 14.6859 12.7552 14.7813 13.0927L15.9305 17.1148L12.5038 14.8299C12.3533 14.729 12.1763 14.6751 11.9952 14.6751C11.814 14.6751 11.637 14.729 11.4865 14.8299L7.90566 17.2175L8.86876 13.0478C8.90407 12.8944 8.89933 12.7345 8.855 12.5835C8.81066 12.4325 8.72822 12.2955 8.6156 12.1856L5.82905 9.46871L9.58053 9.16969Z" fill="#F3CD03"/>
</g>
</svg>
