<svg width="23" height="23" viewBox="0 0 23 23" fill="none" xmlns="http://www.w3.org/2000/svg">
<g id="icn bxs-star">
<path id="Vector" d="M21.0627 8.41929C21.005 8.24948 20.8989 8.10027 20.7574 7.99008C20.616 7.87989 20.4453 7.81355 20.2665 7.79924L15.0374 7.38374L12.7746 2.37472C12.7025 2.21339 12.5853 2.07636 12.4371 1.98018C12.2888 1.88399 12.116 1.83276 11.9393 1.83266C11.7626 1.83257 11.5896 1.88361 11.4413 1.97963C11.293 2.07565 11.1756 2.21255 11.1034 2.3738L8.84055 7.38374L3.6114 7.79924C3.43571 7.81316 3.26775 7.8774 3.12761 7.98428C2.98747 8.09115 2.88109 8.23614 2.82119 8.40189C2.7613 8.56764 2.75043 8.74714 2.78987 8.91891C2.82932 9.09068 2.91742 9.24745 3.04363 9.37046L6.90794 13.1375L5.54126 19.0555C5.49976 19.2347 5.51306 19.4221 5.57943 19.5936C5.64581 19.7651 5.76219 19.9127 5.91347 20.0172C6.06476 20.1217 6.24397 20.1784 6.42784 20.1798C6.61172 20.1812 6.79177 20.1273 6.94463 20.0251L11.939 16.6955L16.9333 20.0251C17.0895 20.1288 17.2738 20.1822 17.4613 20.1781C17.6488 20.174 17.8305 20.1125 17.9821 20.0021C18.1336 19.8916 18.2477 19.7373 18.3089 19.5601C18.3702 19.3828 18.3757 19.1911 18.3248 19.0106L16.6471 13.1403L20.8077 9.39615C21.0801 9.15033 21.1801 8.76692 21.0627 8.41929Z" fill="#F3CD03"/>
</g>
</svg>
